<svg width="129" height="129" viewBox="0 0 129 129" fill="none" xmlns="http://www.w3.org/2000/svg">
<path id="Star 1" d="M64.5 0L66.7084 39.9624L76.0169 1.03654L71.0543 40.751L87.1637 4.11285L75.1895 42.303L97.582 9.13005L78.9812 44.5684L106.937 15.9269L82.3074 47.4744L114.928 24.2849L85.0612 50.9277L121.298 33.9355L87.1542 54.8171L125.843 44.5684L88.5191 59.0178L128.416 55.842L89.112 63.3947L128.935 67.3938L88.9138 67.8071L127.383 78.8526L87.931 72.1132L123.81 89.8501L86.1951 76.1746L118.33 100.033L83.7618 79.8608L111.12 109.074L80.7095 83.0533L102.412 116.682L77.1362 85.6494L92.4855 122.612L73.1568 87.5658L81.6594 126.676L68.8991 88.7409L70.2817 128.74L64.5 89.1368L58.7183 128.74L60.1009 88.7409L47.3406 126.676L55.8432 87.5658L36.5145 122.612L51.8638 85.6494L26.5879 116.682L48.2905 83.0533L17.8797 109.074L45.2382 79.8608L10.67 100.033L42.8049 76.1746L5.19046 89.8501L41.069 72.1132L1.61715 78.8526L40.0862 67.8071L0.064949 67.3938L39.888 63.3947L0.58374 55.842L40.4809 59.0178L3.15686 44.5684L41.8458 54.8171L7.70159 33.9355L43.9388 50.9277L14.0719 24.2849L46.6926 47.4744L22.063 15.9269L50.0188 44.5684L31.418 9.13005L53.8105 42.303L41.8363 4.11285L57.9457 40.751L52.9831 1.03654L62.2916 39.9624L64.5 0Z" fill="#DBFF45"/>
</svg>
